<?xml version="1.0" standalone="no"?>
<!DOCTYPE svg PUBLIC "-//W3C//DTD SVG 20010904//EN"
 "http://www.w3.org/TR/2001/REC-SVG-20010904/DTD/svg10.dtd">
<svg version="1.0" xmlns="http://www.w3.org/2000/svg"
 width="300.000000pt" height="300.000000pt" viewBox="0 0 300.000000 300.000000"
 preserveAspectRatio="xMidYMid meet">
<metadata>
Created by potrace 1.15, written by Peter Selinger 2001-2017
</metadata>
<g transform="translate(0.000000,300.000000) scale(0.100000,-0.100000)"
fill="#000000" stroke="none">
<path d="M322 2483 l3 -178 53 -3 52 -3 0 -738 c0 -665 2 -739 16 -745 9 -3
491 -6 1073 -6 809 0 1060 3 1069 12 9 9 12 188 12 744 l0 733 33 3 32 3 3
178 2 177 -1175 0 -1175 0 2 -177z m2308 2 l0 -135 -1135 0 -1135 0 0 135 0
135 1135 0 1135 0 0 -135z m-80 -905 l0 -720 -1035 0 -1035 0 0 720 0 720
1035 0 1035 0 0 -720z"/>
<path d="M510 2251 c0 -10 7 -22 16 -25 20 -8 1958 -8 1978 0 9 3 16 15 16 25
0 19 -26 19 -1005 19 -979 0 -1005 0 -1005 -19z"/>
<path d="M513 2104 c-3 -8 -1 -20 4 -25 5 -5 394 -8 1004 -7 986 3 994 3 994
23 0 20 -8 20 -998 23 -899 2 -998 1 -1004 -14z"/>
<path d="M513 1944 c-3 -8 -1 -20 4 -25 5 -5 394 -8 1004 -7 986 3 994 3 994
23 0 20 -8 20 -998 23 -899 2 -998 1 -1004 -14z"/>
<path d="M510 1781 c0 -10 7 -22 16 -25 25 -10 1967 -7 1983 3 8 5 11 16 8 25
-6 15 -99 16 -1007 16 -974 0 -1000 0 -1000 -19z"/>
<path d="M513 1634 c-3 -8 -1 -20 4 -25 5 -5 394 -8 1004 -7 986 3 994 3 994
23 0 20 -8 20 -998 23 -899 2 -998 1 -1004 -14z"/>
<path d="M513 1474 c-3 -8 -1 -20 4 -25 5 -5 394 -8 1004 -7 986 3 994 3 994
23 0 20 -8 20 -998 23 -899 2 -998 1 -1004 -14z"/>
<path d="M510 1311 c0 -10 7 -22 16 -25 25 -10 1967 -7 1983 3 8 5 11 16 8 25
-6 15 -99 16 -1007 16 -974 0 -1000 0 -1000 -19z"/>
<path d="M513 1164 c-3 -8 -1 -20 4 -25 5 -5 394 -8 1004 -7 986 3 994 3 994
23 0 20 -8 20 -998 23 -899 2 -998 1 -1004 -14z"/>
<path d="M513 1004 c-3 -8 -1 -20 4 -25 5 -5 394 -8 1004 -7 986 3 994 3 994
23 0 20 -8 20 -998 23 -899 2 -998 1 -1004 -14z"/>
<path d="M517 704 c-4 -4 -7 -94 -7 -201 l0 -193 1005 0 1005 0 -2 197 c-3
190 -4 198 -23 198 -19 0 -20 -8 -23 -177 l-2 -178 -955 0 -955 0 -2 177 c-3
151 -5 178 -18 181 -9 1 -19 0 -23 -4z"/>
<path d="M717 703 c-4 -3 -7 -51 -7 -105 l0 -98 353 2 352 3 0 100 c0 93 -1
100 -20 100 -18 0 -20 -8 -23 -77 l-3 -78 -304 0 -305 0 0 68 c0 73 -19 110
-43 85z"/>
<path d="M1615 697 c-3 -7 -5 -54 -3 -103 l3 -89 350 0 350 0 3 94 c3 98 -5
124 -33 101 -11 -9 -15 -31 -15 -81 l0 -69 -305 0 -304 0 -3 77 c-3 65 -6 78
-21 81 -9 2 -19 -3 -22 -11z"/>
</g>
</svg>
