<?xml version="1.0" standalone="no"?>
<!DOCTYPE svg PUBLIC "-//W3C//DTD SVG 20010904//EN"
 "http://www.w3.org/TR/2001/REC-SVG-20010904/DTD/svg10.dtd">
<svg version="1.0" xmlns="http://www.w3.org/2000/svg"
 width="666.000000pt" height="555.000000pt" viewBox="0 0 666.000000 555.000000"
 preserveAspectRatio="xMidYMid meet">
<metadata>
Created by potrace 1.15, written by Peter Selinger 2001-2017
</metadata>
<g transform="translate(0.000000,555.000000) scale(0.100000,-0.100000)"
fill="#000000" stroke="none">
<path d="M507 5529 c-21 -11 -47 -34 -57 -52 -20 -32 -20 -69 -20 -2469 l0
-2438 -130 0 c-147 0 -181 -9 -223 -59 l-27 -33 0 -193 0 -193 26 -32 c15 -17
39 -37 55 -45 43 -23 6355 -23 6398 0 16 8 40 28 55 45 l26 32 0 193 0 193
-27 33 c-42 50 -76 59 -224 59 l-131 0 4 2433 3 2432 -21 35 c-11 19 -38 45
-60 57 l-39 23 -2785 -1 c-2766 0 -2785 0 -2823 -20z m5525 -431 c2 -161 2
-1246 0 -2410 l-3 -2118 -105 0 -104 0 -2 2268 c-3 2188 -4 2268 -22 2294 -10
15 -34 38 -55 50 l-36 23 -2375 0 -2375 0 -36 -23 c-21 -12 -45 -35 -55 -50
-18 -26 -19 -106 -22 -2294 l-2 -2268 -105 0 -105 0 0 2410 0 2410 2699 0
2700 0 3 -292z m-412 -228 l0 -170 -2290 0 -2290 0 0 170 0 170 2290 0 2290 0
0 -170z m0 -500 l0 -170 -2290 0 -2290 0 0 170 0 170 2290 0 2290 0 0 -170z
m0 -505 l0 -165 -2290 0 -2290 0 0 165 0 165 2290 0 2290 0 0 -165z m0 -505
l0 -170 -2290 0 -2290 0 0 170 0 170 2290 0 2290 0 0 -170z m0 -505 l0 -165
-2290 0 -2290 0 0 165 0 165 2290 0 2290 0 0 -165z m-4488 -1232 c3 -881 3
-899 23 -933 12 -21 39 -44 65 -58 l45 -22 962 2 c958 3 962 3 990 24 15 11
38 36 51 54 l22 33 0 898 0 899 40 0 40 0 0 -899 0 -898 22 -33 c13 -18 36
-43 51 -54 28 -21 32 -21 990 -24 l962 -2 45 22 c26 14 53 37 65 58 20 34 20
52 23 933 l2 897 45 0 45 0 0 -975 0 -975 -2290 0 -2290 0 0 975 0 975 45 0
45 0 2 -897z m1958 27 l0 -870 -880 0 -880 0 0 870 0 870 880 0 880 0 0 -870z
m2240 0 l0 -870 -880 0 -880 0 0 870 0 870 880 0 880 0 0 -870z m1090 -1365
l0 -125 -3090 0 -3090 0 0 125 0 125 3090 0 3090 0 0 -125z"/>
</g>
</svg>
