<?xml version="1.0" standalone="no"?>
<!DOCTYPE svg PUBLIC "-//W3C//DTD SVG 20010904//EN"
 "http://www.w3.org/TR/2001/REC-SVG-20010904/DTD/svg10.dtd">
<svg version="1.0" xmlns="http://www.w3.org/2000/svg"
 width="600.000000pt" height="600.000000pt" viewBox="0 0 600.000000 600.000000"
 preserveAspectRatio="xMidYMid meet">
<metadata>
Created by potrace 1.15, written by Peter Selinger 2001-2017
</metadata>
<g transform="translate(0.000000,600.000000) scale(0.100000,-0.100000)"
fill="#000000" stroke="none">
<path d="M2105 5460 c-118 -303 -215 -540 -222 -540 -7 0 -112 27 -234 61
-121 33 -222 59 -224 57 -1 -2 -7 -16 -12 -33 -9 -27 -15 -31 -60 -36 -85 -11
-90 -20 -37 -76 35 -36 36 -39 24 -73 -7 -19 -9 -36 -4 -37 5 -2 101 -52 215
-111 l205 -107 -213 -544 c-117 -300 -211 -546 -210 -547 5 -6 286 -114 293
-114 5 1 131 233 279 516 149 284 275 522 280 530 8 11 62 0 310 -62 165 -42
303 -79 307 -83 3 -3 -7 -82 -23 -175 -15 -93 -26 -172 -24 -176 4 -7 154 -65
183 -72 9 -2 36 55 82 172 73 186 67 178 133 169 24 -3 30 1 42 28 13 32 13
32 -23 54 -20 13 -38 23 -40 24 -1 1 25 74 59 161 34 88 65 169 69 180 8 20 1
25 -86 58 -51 20 -97 36 -101 36 -5 0 -51 -65 -103 -145 -52 -80 -98 -145
-102 -145 -11 0 -530 281 -545 294 -9 8 26 150 142 586 85 316 151 578 147
581 -11 9 -272 109 -285 109 -7 0 -106 -243 -222 -540z"/>
<path d="M2430 3787 c0 -4 20 -31 43 -61 24 -29 73 -98 109 -152 239 -360 374
-737 395 -1102 l8 -132 68 45 c78 53 76 46 46 202 -63 330 -250 714 -496 1018
-79 98 -173 196 -173 182z"/>
<path d="M2140 3587 c0 -4 22 -35 49 -70 145 -185 314 -496 390 -719 67 -197
111 -435 111 -604 0 -30 3 -54 6 -54 3 0 34 21 70 46 43 31 64 53 64 66 0 48
-54 282 -90 390 -74 223 -205 465 -367 683 -85 114 -232 279 -233 262z"/>
<path d="M3548 2799 c-191 -410 -228 -496 -228 -534 0 -33 22 -99 81 -247 45
-112 89 -224 99 -249 l19 -46 -192 -108 c-106 -60 -203 -115 -217 -124 -49
-29 -3 8 160 129 91 68 169 126 174 131 10 9 -172 439 -186 439 -39 0 -335
-143 -510 -247 -316 -186 -423 -276 -492 -416 -55 -113 -69 -188 -63 -348 l5
-136 -278 -88 -277 -88 -447 302 c-245 165 -450 301 -454 301 -5 0 -52 -56
-105 -125 l-96 -126 42 -38 c23 -20 103 -90 178 -153 l135 -116 467 -182 467
-182 182 65 c101 36 184 65 185 64 5 -6 -360 -192 -370 -189 -7 2 -227 87
-490 189 -267 103 -482 181 -487 177 -10 -10 -130 -272 -130 -282 0 -4 235
-133 523 -287 l522 -280 80 0 80 0 487 262 c464 250 1476 819 1509 849 13 12
46 -7 260 -152 281 -191 304 -204 357 -204 22 0 224 44 448 99 225 54 423 102
440 105 l31 7 -22 125 c-12 68 -24 126 -26 129 -3 2 -188 -16 -413 -42 l-408
-45 -226 153 -227 153 -1 58 c-3 124 -63 252 -224 478 -77 108 -107 142 -95
108 16 -48 75 -271 72 -274 -6 -6 -181 440 -179 456 0 8 68 211 151 451 82
239 151 443 153 453 3 18 -8 23 -192 96 l-45 17 -227 -488z"/>
<path d="M4467 2340 c-75 -13 -171 -63 -227 -120 -150 -149 -167 -392 -40
-561 89 -118 213 -175 370 -167 77 4 98 9 163 41 143 71 228 199 235 358 7
143 -32 243 -133 338 -65 61 -135 96 -225 110 -72 12 -75 12 -143 1z"/>
</g>
</svg>
